<svg width="134" height="20" viewBox="0 0 134 20" fill="none" xmlns="http://www.w3.org/2000/svg">
<path d="M8.40997 1.87207C9.56637 1.87207 10.5719 2.00053 11.4216 2.25745C12.2764 2.51436 12.9853 2.87503 13.5434 3.33452C14.1065 3.79895 14.5238 4.35725 14.8003 5.01436C15.0769 5.67148 15.2177 6.40764 15.2177 7.22286C15.2177 8.47286 14.8607 9.54994 14.1417 10.459C13.4277 11.3731 12.3367 12.0104 10.8736 12.376L16.0472 19.545H12.3116L7.45468 12.6379H3.86481V19.545H0.641968V1.87207H8.40997ZM3.86983 4.55488V9.95013H8.23902C9.55631 9.95013 10.5116 9.69816 11.1049 9.18926C11.6982 8.68531 11.9948 8.03808 11.9948 7.24756C11.9948 6.49164 11.7032 5.85428 11.1149 5.33057C10.5267 4.80685 9.5714 4.545 8.23399 4.545H3.86983V4.55488Z" fill="#3B4144"/>
<path d="M20.492 15.0841C20.8339 15.756 21.3769 16.2501 22.126 16.5712C22.8752 16.8924 23.7098 17.0505 24.6399 17.0505C25.4695 17.0505 26.4399 16.8331 27.5561 16.3934C28.6723 15.9537 29.9695 15.1829 31.4476 14.0811V17.4408C30.4572 18.256 29.3913 18.8884 28.2499 19.3331C27.1086 19.7827 25.8718 20.005 24.5394 20.005C23.4634 20.005 22.4629 19.842 21.5378 19.511C20.6127 19.1849 19.8082 18.7254 19.1345 18.1325C18.4607 17.5396 17.9278 16.8232 17.5356 15.9882C17.1435 15.1483 16.9524 14.2195 16.9524 13.1967C16.9524 12.1888 17.1434 11.2699 17.5256 10.4398C17.9077 9.60978 18.4356 8.89338 19.1144 8.29556C19.7881 7.69773 20.5925 7.2333 21.5177 6.90227C22.4428 6.57619 23.4534 6.4082 24.5444 6.4082C25.6505 6.4082 26.641 6.56631 27.5108 6.87757C28.3807 7.18884 29.1197 7.62362 29.7181 8.18686C30.3214 8.74516 30.784 9.41216 31.1108 10.178C31.4376 10.9438 31.5985 11.7837 31.5985 12.6977L20.492 15.0841ZM24.6399 9.35287C24.102 9.35287 23.5891 9.42204 23.1014 9.55544C22.6137 9.69378 22.1763 9.88646 21.7841 10.1434C21.392 10.4003 21.0601 10.7116 20.7836 11.0772C20.5071 11.4428 20.311 11.8627 20.1953 12.3222L28.0036 10.6424C27.7421 10.3064 27.3349 10.005 26.7717 9.74318C26.2086 9.48133 25.4997 9.35287 24.6399 9.35287Z" fill="#3B4144"/>
<path d="M38.8433 19.4958C37.9634 19.145 37.1741 18.6608 36.4651 18.0433C35.7562 17.4257 35.1529 16.6944 34.6601 15.8348C34.1624 14.98 33.7803 14.0067 33.5138 12.9197C33.2473 11.8328 33.1116 10.6519 33.1116 9.3723V6.85254H36.2339V9.3723C36.2339 10.2221 36.3143 11.0373 36.4802 11.8328C36.6411 12.6233 36.8774 13.3496 37.1891 14.0017C37.4958 14.6589 37.878 15.227 38.3254 15.7162C38.7729 16.2053 39.2807 16.566 39.8489 16.8081C40.417 16.566 40.9248 16.2053 41.3723 15.7162C41.8198 15.227 42.1918 14.6589 42.4935 14.0017C42.7952 13.3446 43.0265 12.6233 43.1873 11.8328C43.3482 11.0423 43.4337 10.2221 43.4337 9.3723V6.85254H46.5811V9.3723C46.5811 11.9464 46.0582 14.1006 45.0074 15.8348C43.9566 17.5689 42.5237 18.8041 40.6986 19.5403H39.1349L38.8433 19.4958Z" fill="#3B4144"/>
<path d="M48.0948 4.53102C48.0948 4.00237 48.2909 3.5577 48.6781 3.18715C49.0703 2.82154 49.5479 2.63379 50.116 2.63379C50.6842 2.63379 51.1669 2.8166 51.554 3.18715C51.9462 3.55276 52.1423 4.00237 52.1423 4.53102C52.1423 5.0745 51.9462 5.52905 51.554 5.8996C51.1618 6.26521 50.6842 6.45296 50.116 6.45296C49.5479 6.45296 49.0652 6.27015 48.6781 5.8996C48.2859 5.53399 48.0948 5.0745 48.0948 4.53102ZM48.6027 6.8581H51.7249V19.5458H48.6027V6.8581Z" fill="#3B4144"/>
<path d="M57.1952 15.0841C57.5371 15.756 58.0801 16.2501 58.8293 16.5712C59.5784 16.8924 60.413 17.0505 61.3432 17.0505C62.1728 17.0505 63.1432 16.8331 64.2593 16.3934C65.3755 15.9537 66.6727 15.1829 68.1509 14.0811V17.4408C67.1604 18.256 66.0945 18.8884 64.9532 19.3331C63.8119 19.7827 62.575 20.005 61.2426 20.005C60.1667 20.005 59.1661 19.842 58.241 19.511C57.3159 19.1849 56.5114 18.7254 55.8377 18.1325C55.164 17.5396 54.631 16.8232 54.2389 15.9882C53.8467 15.1483 53.6556 14.2195 53.6556 13.1967C53.6556 12.1888 53.8467 11.2699 54.2288 10.4398C54.6109 9.60978 55.1388 8.89338 55.8176 8.29556C56.4913 7.69773 57.2958 7.2333 58.2209 6.90227C59.146 6.57619 60.1566 6.4082 61.2477 6.4082C62.3538 6.4082 63.3443 6.56631 64.2141 6.87757C65.0839 7.18884 65.823 7.62362 66.4213 8.18686C67.0246 8.74516 67.4872 9.41216 67.814 10.178C68.1408 10.9438 68.3017 11.7837 68.3017 12.6977L57.1952 15.0841ZM61.3432 9.35287C60.8052 9.35287 60.2924 9.42204 59.8047 9.55544C59.317 9.69378 58.8796 9.88646 58.4874 10.1434C58.0952 10.4003 57.7634 10.7116 57.4868 11.0772C57.2103 11.4428 57.0142 11.8627 56.8986 12.3222L64.7068 10.6424C64.4454 10.3064 64.0381 10.005 63.475 9.74318C62.9119 9.48133 62.208 9.35287 61.3432 9.35287Z" fill="#3B4144"/>
<path d="M72.9372 15.2023C72.9372 16.4325 73.5958 17.0501 74.9131 17.0501C75.3355 17.0501 75.7628 17.0007 76.1952 16.892C76.6276 16.7882 76.9947 16.6351 77.3064 16.4226V6.85742H80.4287V16.4276C80.7354 16.6054 81.1124 16.7537 81.5499 16.8722C81.9873 16.9908 82.4096 17.0501 82.8169 17.0501C84.1342 17.0501 84.7928 16.4325 84.7928 15.2023V6.85742H87.9151V15.2023C87.9151 16.7043 87.4726 17.8801 86.5827 18.725C85.6978 19.5699 84.4409 19.9948 82.8118 19.9948C82.2085 19.9948 81.5549 19.8811 80.846 19.6588C80.137 19.4365 79.4734 19.1301 78.8549 18.7497C78.2365 19.1351 77.5728 19.4365 76.8639 19.6588C76.155 19.8811 75.5014 19.9948 74.898 19.9948C73.269 19.9948 72.0121 19.5699 71.1272 18.725C70.2423 17.8801 69.7948 16.7043 69.7948 15.2023V6.85742H72.9372V15.2023Z" fill="#3B4144"/>
<path d="M100.052 12.5446C100.052 11.5713 99.7656 10.7956 99.1975 10.2175C98.6293 9.64443 97.8651 9.35292 96.9048 9.35292C96.1406 9.35292 95.3713 9.43198 94.597 9.59502C93.8227 9.75312 93.144 9.99522 92.5608 10.3164V19.5506H89.4385V9.16024C89.896 8.76004 90.4139 8.38949 91.0021 8.04364C91.5854 7.69779 92.2038 7.40628 92.8574 7.16913C93.506 6.92704 94.1797 6.73929 94.8685 6.60589C95.5624 6.47249 96.2411 6.40332 96.9048 6.40332C97.85 6.40332 98.7048 6.55154 99.479 6.84798C100.253 7.14443 100.912 7.55945 101.47 8.09304C102.023 8.63158 102.45 9.27387 102.752 10.0249C103.054 10.7758 103.205 11.6158 103.205 12.5446V19.5456H100.057V12.5446H100.052Z" fill="#3B4144"/>
<path d="M104.713 1.20117H107.835V7.24366C108.519 6.98674 109.253 6.78418 110.043 6.63101C110.832 6.47785 111.586 6.40374 112.3 6.40374C113.275 6.40374 114.16 6.55196 114.95 6.8484C115.739 7.14485 116.413 7.55987 116.976 8.09346C117.539 8.632 117.966 9.27429 118.268 10.0253C118.57 10.7763 118.721 11.6162 118.721 12.545V19.546H115.573V12.545C115.573 11.5717 115.282 10.796 114.693 10.218C114.105 9.64485 113.311 9.35335 112.3 9.35335C111.566 9.35335 110.792 9.44722 109.967 9.63991C109.148 9.83259 108.434 10.0796 107.83 10.386V19.546H104.708V1.20117H104.713Z" fill="#3B4144"/>
<path d="M125.211 0L131.215 5.75593L130.31 6.78854C131.446 7.15415 132.346 7.78162 133.005 8.66107C133.663 9.54051 133.995 10.6818 133.995 12.0899V17.2233C133.07 18.0534 132.014 18.7253 130.833 19.2391C129.651 19.753 128.379 20.0049 127.011 20.0049C126.066 20.0049 125.181 19.9111 124.352 19.7184C123.522 19.5257 122.803 19.2391 122.19 18.8538C121.581 18.4684 121.099 17.9891 120.752 17.4012C120.4 16.8182 120.229 16.1364 120.229 15.3508C120.229 14.5356 120.4 13.8291 120.742 13.2263C121.084 12.6285 121.541 12.1344 122.119 11.749C122.698 11.3636 123.366 11.082 124.13 10.8992C124.895 10.7164 125.699 10.6225 126.549 10.6225C127.459 10.6225 128.273 10.6917 128.987 10.8251C129.701 10.9634 130.32 11.1413 130.843 11.3636V11.0771C130.843 10.6126 130.586 10.2075 130.073 9.8666C129.561 9.52075 128.766 9.35277 127.695 9.35277C126.685 9.35277 125.654 9.48123 124.598 9.73814C123.542 9.99506 122.411 10.4743 121.204 11.1759V8.0336C122.129 7.50494 123.11 7.0998 124.13 6.82312C125.156 6.5415 126.343 6.40316 127.695 6.40316H128.012L123.009 2.15909L125.211 0ZM123.356 15.3508C123.356 15.6522 123.452 15.914 123.648 16.1314C123.844 16.3488 124.11 16.5217 124.452 16.6601C124.794 16.7984 125.186 16.8972 125.624 16.9615C126.061 17.0257 126.529 17.0553 127.016 17.0553C127.73 17.0553 128.409 16.9713 129.053 16.8034C129.696 16.6354 130.295 16.4081 130.848 16.1215V14.3725C130.083 14.0514 129.344 13.8192 128.64 13.6759C127.937 13.5326 127.268 13.4585 126.649 13.4585C125.689 13.4585 124.9 13.6215 124.281 13.9476C123.668 14.2737 123.356 14.7431 123.356 15.3508Z" fill="#3B4144"/>
</svg>
