<svg width="6" height="7" viewBox="0 0 6 7" fill="none" xmlns="http://www.w3.org/2000/svg">
                    <path d="M0.558089 1.62398L2.3128 2.67141L2.27258 0.87793H3.4692L3.42898 2.64176L5.10325 1.63386L5.77195 2.53307L3.90663 3.56074L5.77195 4.56864L5.10325 5.47773L3.42898 4.46983L3.45915 6.23366H2.27258L2.30275 4.46983L0.558089 5.48761L0 4.56864L1.8251 3.56074C1.6793 3.48168 1.52343 3.40263 1.36254 3.3137C1.20668 3.22477 1.04579 3.13583 0.884898 3.0469C0.729036 2.95797 0.573173 2.87398 0.41731 2.78999C0.266475 2.70599 0.125696 2.62694 0 2.55283L0.558089 1.62398Z" fill="#3B4144"/>
</svg>